<?xml version="1.0" encoding="UTF-8" standalone="no"?>
<svg
   xmlns:dc="http://purl.org/dc/elements/1.1/"
   xmlns:cc="http://creativecommons.org/ns#"
   xmlns:rdf="http://www.w3.org/1999/02/22-rdf-syntax-ns#"
   xmlns:svg="http://www.w3.org/2000/svg"
   xmlns="http://www.w3.org/2000/svg"
   xmlns:sodipodi="http://sodipodi.sourceforge.net/DTD/sodipodi-0.dtd"
   xmlns:inkscape="http://www.inkscape.org/namespaces/inkscape"
   fill="#000000"
   height="24"
   viewBox="0 0 24 24"
   width="24"
   version="1.1"
   id="svg6"
   sodipodi:docname="vk_active.svg"
   inkscape:version="0.92.1 r"
   inkscape:export-filename="/home/qishen/.config/fcitx/skin/material/vk_active.png"
   inkscape:export-xdpi="96"
   inkscape:export-ydpi="96">
  <metadata
     id="metadata12">
    <rdf:RDF>
      <cc:Work
         rdf:about="">
        <dc:format>image/svg+xml</dc:format>
        <dc:type
           rdf:resource="http://purl.org/dc/dcmitype/StillImage" />
        <dc:title></dc:title>
      </cc:Work>
    </rdf:RDF>
  </metadata>
  <defs
     id="defs10" />
  <sodipodi:namedview
     pagecolor="#ffffff"
     bordercolor="#666666"
     borderopacity="1"
     objecttolerance="10"
     gridtolerance="10"
     guidetolerance="10"
     inkscape:pageopacity="0"
     inkscape:pageshadow="2"
     inkscape:window-width="1920"
     inkscape:window-height="1016"
     id="namedview8"
     showgrid="false"
     inkscape:zoom="9.8333333"
     inkscape:cx="12.20339"
     inkscape:cy="12"
     inkscape:window-x="0"
     inkscape:window-y="0"
     inkscape:window-maximized="1"
     inkscape:current-layer="svg6" />
  <path
     d="M 18.8,6.05 H 5.2 c -0.935,0 -1.6915,0.765 -1.6915,1.7 L 3.5,16.25 c 0,0.935 0.765,1.7 1.7,1.7 h 13.6 c 0.935,0 1.7,-0.765 1.7,-1.7 v -8.5 c 0,-0.935 -0.765,-1.7 -1.7,-1.7 z M 11.15,8.6 h 1.7 v 1.7 h -1.7 z m 0,2.55 h 1.7 v 1.7 h -1.7 z M 8.6,8.6 h 1.7 v 1.7 H 8.6 Z m 0,2.55 h 1.7 v 1.7 H 8.6 Z m -0.85,1.7 h -1.7 v -1.7 h 1.7 z m 0,-2.55 H 6.05 V 8.6 h 1.7 z m 7.65,5.95 H 8.6 v -1.7 h 6.8 z m 0,-3.4 h -1.7 v -1.7 h 1.7 z m 0,-2.55 H 13.7 V 8.6 h 1.7 z m 2.55,2.55 h -1.7 v -1.7 h 1.7 z m 0,-2.55 h -1.7 V 8.6 h 1.7 z"
     id="path2"
     style="opacity:0.54000005;stroke-width:0.85000002"
     inkscape:connector-curvature="0" />
  <path
     d="M0 0h24v24H0zm0 0h24v24H0z"
     fill="none"
     id="path4" />
</svg>
